<?xml version="1.0" encoding="UTF-8" standalone="no"?>
<!-- Created with Inkscape (http://www.inkscape.org/) -->

<svg
   xmlns:dc="http://purl.org/dc/elements/1.1/"
   xmlns:cc="http://creativecommons.org/ns#"
   xmlns:rdf="http://www.w3.org/1999/02/22-rdf-syntax-ns#"
   xmlns:svg="http://www.w3.org/2000/svg"
   xmlns="http://www.w3.org/2000/svg"
   xmlns:sodipodi="http://sodipodi.sourceforge.net/DTD/sodipodi-0.dtd"
   xmlns:inkscape="http://www.inkscape.org/namespaces/inkscape"
   width="6.61026mm"
   height="8.4858389mm"
   viewBox="0 0 23.422181 30.067933"
   id="svg2"
   version="1.1"
   inkscape:version="0.91 r13725"
   sodipodi:docname="pile logo_white.svg">
  <defs
     id="defs4" />
  <sodipodi:namedview
     id="base"
     pagecolor="#ffffff"
     bordercolor="#666666"
     borderopacity="1.0"
     inkscape:pageopacity="0.0"
     inkscape:pageshadow="2"
     inkscape:zoom="16"
     inkscape:cx="18.340942"
     inkscape:cy="16.159642"
     inkscape:document-units="px"
     inkscape:current-layer="layer1"
     showgrid="false"
     fit-margin-top="0"
     fit-margin-left="0"
     fit-margin-right="0"
     fit-margin-bottom="0"
     inkscape:window-width="1680"
     inkscape:window-height="988"
     inkscape:window-x="1272"
     inkscape:window-y="-8"
     inkscape:window-maximized="1" />
  <metadata
     id="metadata7">
    <rdf:RDF>
      <cc:Work
         rdf:about="">
        <dc:format>image/svg+xml</dc:format>
        <dc:type
           rdf:resource="http://purl.org/dc/dcmitype/StillImage" />
        <dc:title></dc:title>
      </cc:Work>
    </rdf:RDF>
  </metadata>
  <g
     inkscape:label="Vrstva 1"
     inkscape:groupmode="layer"
     id="layer1"
     transform="translate(-15.158962,-12.023409)">
    <g
       transform="translate(-126.20458,-71.853004)"
       style="font-style:normal;font-weight:normal;font-size:40px;line-height:125%;font-family:sans-serif;letter-spacing:0px;word-spacing:0px;fill:none;fill-opacity:0;stroke:#ffffff;stroke-width:0.5;stroke-linecap:butt;stroke-linejoin:miter;stroke-miterlimit:4;stroke-dasharray:none;stroke-opacity:1"
       id="text4254-4">
      <path
         d="m 141.80015,113.67837 22.1058,0 c 0,-0.4 0.19143,-7.64 0.35143,-9.28 l -1.48,0 -0.71884,2.94125 c -0.4,1.52 -1.24089,3.53125 -1.90607,4.12107 -0.52,0.44 -5.51232,0.45768 -6.11232,0.45768 l -0.84,0 c -2.88,0 -3.92,-0.64 -3.92,-1.56 0,-0.36 0.08,-17.400002 0.28,-23.120002 0.04,-1.28 1.4,-1.44 3.28,-1.56 l 0.56,-0.04 0,-1.48 -11.6,0 0,1.48 0.56,0.04 c 1.88,0.12 2.68,0.28 2.76,1.56 0.24,7.72 0.28,22.160002 0.28,23.120002 0,1.48 -1.48,1.68 -3.6,1.84 z"
         style="font-style:normal;font-variant:normal;font-weight:normal;font-stretch:normal;font-family:Prociono;-inkscape-font-specification:Prociono;fill:none;fill-opacity:0;stroke:#ffffff;stroke-width:0.5;stroke-miterlimit:4;stroke-dasharray:none;stroke-opacity:1"
         id="path4321"
         inkscape:connector-curvature="0"
         sodipodi:nodetypes="ccccccsssccccccccscc" />
    </g>
    <g
       transform="matrix(1.0042803,0,0,0.99573794,-126.20458,-71.853004)"
       style="font-style:normal;font-variant:normal;font-weight:normal;font-stretch:normal;font-size:39.83314133px;line-height:125%;font-family:Prociono;-inkscape-font-specification:Prociono;letter-spacing:0px;word-spacing:0px;fill:none;fill-opacity:0;stroke:#ffffff;stroke-width:0.49791428;stroke-linecap:butt;stroke-linejoin:miter;stroke-miterlimit:4;stroke-dasharray:none;stroke-opacity:1"
       id="text4246-5">
      <path
         d="m 141.01002,114.16599 13.62293,0 0,-1.35432 -1.51366,-0.1195 c -2.11115,-0.15934 -4.38164,-0.3585 -4.38164,-1.83233 0,-0.31866 0.0398,-4.81981 0.0797,-10.15745 0.99582,0.43817 2.78832,0.63733 4.26214,0.63733 7.60813,0 10.75495,-5.576639 10.75495,-8.723457 0,-3.903648 -1.63316,-8.086127 -8.20563,-8.086127 l -0.79666,0 c -1.87216,0 -1.82308,0.08449 -7.91755,0.08449 -2.11116,0 -4.88824,0.03242 -5.62572,0.154505 l -0.0445,1.204823 0.55767,0.03983 c 1.87121,0.133646 2.7531,0.547836 2.79293,1.822496 0.0797,2.708654 0.1195,6.134304 0.1195,9.559954 0,8.086136 -0.0797,12.109286 -0.1195,13.463606 -0.0398,1.51366 -1.63316,1.71283 -3.58498,1.83233 l 0,1.47382 z m 7.84713,-16.01292 c 0.0398,-3.42565 0.1195,-8.444626 0.19916,-10.754948 l 0.43817,-0.438165 c 1.03566,-0.358498 3.98331,-0.477997 5.6563,-0.477997 0.239,0 0.717,0.159332 1.15517,0.358498 3.02731,1.473826 3.06715,4.301979 3.06715,6.452969 0,2.071323 -0.15933,6.054637 -5.93514,6.054637 -2.35016,0 -3.94348,-0.63733 -4.58081,-1.194994 z"
         style="font-style:normal;font-variant:normal;font-weight:normal;font-stretch:normal;font-family:Prociono;-inkscape-font-specification:Prociono;fill:none;fill-opacity:0;stroke:#ffffff;stroke-width:0.49791428;stroke-miterlimit:4;stroke-dasharray:none;stroke-opacity:1"
         id="path4318"
         inkscape:connector-curvature="0"
         sodipodi:nodetypes="ccccscsssssccscscccccccscssc" />
    </g>
    <g
       transform="matrix(0.99946441,0,0,1.0005359,-126.20458,-71.853004)"
       style="font-style:normal;font-weight:normal;font-size:40.02097321px;line-height:125%;font-family:sans-serif;letter-spacing:0px;word-spacing:0px;fill:none;fill-opacity:0;stroke:#ffffff;stroke-width:0.5;stroke-linecap:butt;stroke-linejoin:miter;stroke-miterlimit:4;stroke-dasharray:none;stroke-opacity:1"
       id="text4258-2">
      <path
         d="m 141.70753,113.63314 22.2854,-0.0158 c 0,-0.40021 0.20011,-7.644 0.36019,-9.28486 l -1.48078,0 -0.56029,2.16113 c -0.40021,1.5208 -1.04054,4.0021 -2.04107,4.88256 -0.44023,0.36019 -3.12164,0.48025 -4.2022,0.48025 -4.80252,0 -6.6835,-0.24013 -6.6835,-1.56082 0,-0.36019 0,-5.56291 0.08,-11.486017 1.16061,0.120063 7.16375,-0.160084 8.80461,1.040545 l 0.68036,0 0.40021,-2.961552 c -0.84044,0.04002 -7.48392,0.200105 -9.84516,0.200105 0.04,-3.441804 0.08,-7.203775 0.16008,-9.524992 0.04,-1.160608 1.00053,-1.360713 3.28172,-1.360713 1.76093,0 4.08214,0 5.04265,0.120063 0.60031,0.08004 0.9605,0.120063 1.48077,0.240126 0.40021,0.280147 0.52027,0.640336 0.64034,1.040545 0.04,0.08004 0.68035,3.241699 0.88046,4.322265 l 1.36071,0 c 0.04,-0.560293 0.9605,-6.963649 1.08057,-7.40388 l -0.48025,-0.44023 c 0,0 -10.32542,0.04002 -10.52552,0.04002 -1.20063,0.08004 -3.23191,-0.0032 -5.03285,-0.0032 -2.08109,0 -4.42,0.09844 -5.50057,0.01839 l 0.008,1.425563 0.5603,0.04002 c 1.84096,0.120063 2.6814,0.280147 2.72142,1.560818 0.12007,2.921531 0.16009,6.483397 0.16009,9.925201 0,6.123213 -0.12007,11.926253 -0.16009,13.206923 0,1.5208 -1.4745,1.73668 -3.47554,1.85675 3e-5,0.49358 -2e-5,0.98729 -6e-5,1.48079 z"
         style="font-style:normal;font-variant:normal;font-weight:normal;font-stretch:normal;font-family:Prociono;-inkscape-font-specification:Prociono;fill:none;fill-opacity:0;stroke:#ffffff;stroke-width:0.5;stroke-miterlimit:4;stroke-dasharray:none;stroke-opacity:1"
         id="path4315"
         inkscape:connector-curvature="0"
         sodipodi:nodetypes="ccccccssccccccsccccccccsccccsccc" />
    </g>
    <g
       transform="translate(-126.20458,-71.853004)"
       style="font-style:normal;font-weight:normal;font-size:40px;line-height:125%;font-family:sans-serif;letter-spacing:0px;word-spacing:0px;fill:none;fill-opacity:0;stroke:#ffffff;stroke-width:0.5;stroke-linecap:butt;stroke-linejoin:miter;stroke-miterlimit:4;stroke-dasharray:none;stroke-opacity:1"
       id="text4250-8">
      <path
         inkscape:connector-curvature="0"
         d="m 149.03309,113.67837 11.08,0 0,-1.48 c -2.08,-0.16 -3.6,-0.36 -3.6,-1.84 0,-0.36 0.08,-17.400002 0.28,-23.120002 0.04,-1.28 0.88,-1.44 2.76,-1.56 l 0.56,-0.04 0,-1.48 -11.08,0 0,1.48 0.56,0.04 c 1.88,0.12 2.72,0.28 2.76,1.56 0.24,7.96 0.28,22.800002 0.28,23.120002 0,1.52 -1.6,1.72 -3.6,1.84 l 0,1.48 z"
         style="font-style:normal;font-variant:normal;font-weight:normal;font-stretch:normal;font-family:Prociono;-inkscape-font-specification:Prociono;fill:none;fill-opacity:0;stroke:#ffffff;stroke-width:0.5;stroke-miterlimit:4;stroke-dasharray:none;stroke-opacity:1"
         id="path4312" />
    </g>
  </g>
</svg>
